<svg id="Groupe_1" data-name="Groupe 1" xmlns="http://www.w3.org/2000/svg" width="32" height="32" viewBox="0 0 32 32">
  <path id="Tracé_10" data-name="Tracé 10" d="M0,0H32V32H0Z" fill="none"/>
  <line id="Ligne_1" data-name="Ligne 1" x2="24" transform="translate(4 28)" fill="none" stroke="#fff" stroke-linecap="round" stroke-linejoin="round" stroke-width="2"/>
  <path id="Tracé_11" data-name="Tracé 11" d="M3,8.333V9.667a4,4,0,1,0,8,0V8.333m0,1.333a4,4,0,0,0,8,0V8.333m0,1.333a4,4,0,0,0,8,0V8.333H3L5.667,3H24.333L27,8.333" transform="translate(1 1)" fill="none" stroke="#fff" stroke-linecap="round" stroke-linejoin="round" stroke-width="2"/>
  <line id="Ligne_2" data-name="Ligne 2" y1="13.533" transform="translate(6.667 14.467)" fill="none" stroke="#fff" stroke-linecap="round" stroke-linejoin="round" stroke-width="2"/>
  <line id="Ligne_3" data-name="Ligne 3" y1="13.533" transform="translate(25.333 14.467)" fill="none" stroke="#fff" stroke-linecap="round" stroke-linejoin="round" stroke-width="2"/>
  <path id="Tracé_12" data-name="Tracé 12" d="M9,23V17.667A2.667,2.667,0,0,1,11.667,15h2.667A2.667,2.667,0,0,1,17,17.667V23" transform="translate(3 5)" fill="none" stroke="#fff" stroke-linecap="round" stroke-linejoin="round" stroke-width="2"/>
</svg>
