<svg id="Groupe_6" data-name="Groupe 6" xmlns="http://www.w3.org/2000/svg" width="32" height="32" viewBox="0 0 32 32">
  <path id="Tracé_23" data-name="Tracé 23" d="M0,0H32V32H0Z" fill="none"/>
  <path id="Tracé_24" data-name="Tracé 24" d="M14,3V8.333a1.333,1.333,0,0,0,1.333,1.333h5.333" transform="translate(4.667 1)" fill="none" stroke="#fff" stroke-linecap="round" stroke-linejoin="round" stroke-width="2"/>
  <path id="Tracé_25" data-name="Tracé 25" d="M21,27H7.667A2.667,2.667,0,0,1,5,24.333V5.667A2.667,2.667,0,0,1,7.667,3H17l6.667,6.667V24.333A2.667,2.667,0,0,1,21,27Z" transform="translate(1.667 1)" fill="none" stroke="#fff" stroke-linecap="round" stroke-linejoin="round" stroke-width="2"/>
  <line id="Ligne_9" data-name="Ligne 9" y1="6.667" transform="translate(12 16)" fill="none" stroke="#fff" stroke-linecap="round" stroke-linejoin="round" stroke-width="2"/>
  <line id="Ligne_10" data-name="Ligne 10" y1="1.333" transform="translate(16 21.333)" fill="none" stroke="#fff" stroke-linecap="round" stroke-linejoin="round" stroke-width="2"/>
  <line id="Ligne_11" data-name="Ligne 11" y1="4" transform="translate(20 18.667)" fill="none" stroke="#fff" stroke-linecap="round" stroke-linejoin="round" stroke-width="2"/>
</svg>
