<svg version="1.0" width="770" height="770" viewBox="0 0 770 770" id="svg2">
    <path d="m 154.999,220.9995 c 8.8,4 27.2,11.2 27.2,23.2 0,6.4 -6.4,10.4 -11.2,12.8 v 316.802 c 0,48 3.2,95.2 3.2,143.2 0,23.2 -25.6,32 -44.8,32 -11.2,0 -15.2,-4 -15.2,-15.199 0,-12 1.6,-23.201 2.4,-35.201 3.2,-40 1.6,-80.8 2.4,-120.8 0.8,-50.4 1.6,-101.601 1.6,-152.001 v -148.8 c -28.8,50.4 -63.2,96.8 -102.4,140 l -8,-5.601 c 50.4,-74.4 147.2,-300.801 152.8,-388.801 12.8,3.2 76,20.8 76,36.8 0,9.6 -12.8,15.2 -20.8,16.8 -18.4,48.801 -42.4,96.801 -63.2,144.801 z m 337.601,-38.4 h 152 l 30.4,-40 c 12.8,8.8 61.601,37.601 61.601,52.8 0,5.6 -10.4,6.4 -13.601,6.4 H 500.6 c 72.8,86.4 149.601,120.8 259.201,141.6 l -2.4,10.4 c -28.8,7.2 -48,26.4 -57.601,54.4 -80.8,-34.4 -162.4,-116.001 -207.2,-191.201 v 72 c 0,20.8 2.399,42.4 2.399,63.2 0,20.8 -21.6,31.2 -40,31.2 -7.199,0 -12.8,-2.4 -12.8,-10.4 0,-46.4 4,-93.601 4,-140.001 -68.8,84.801 -152.801,155.201 -253.601,197.602 l -3.2,-8.801 c 95.2,-61.6 152.8,-124 212.001,-220 h -128.8 c -12.8,0 -25.6,1.6 -38.4,2.4 l -11.2,-28 c 19.2,4 38.4,6.4 57.6,6.4 H 446.2 v -75.2 c -10.399,1.6 -20.8,3.2 -31.2,4.8 -56,8 -112.8,10.4 -169.601,17.6 l -4,-8.8 c 37.6,-7.2 328.802,-76 337.602,-100 11.2,10.4 65.6,21.6 65.6,48.8 0,9.6 -6.399,12 -15.2,12 -7.199,0 -14.399,-0.8 -21.6,-4 -38.4,8 -76.801,16 -115.2,23.2 v 81.601 z m -301.601,541.602 c 96.801,-9.601 188.801,-32.8 267.201,-93.601 -30.399,-9.6 -61.601,-17.6 -92.8,-24.8 -10.4,13.601 -21.6,31.2 -40,31.2 -7.2,0 -36,-3.2 -36,-13.6 0,-5.601 4.8,-9.601 8,-12.801 30.4,-32.8 58.4,-72.801 80,-112 H 256.6 c -12.8,0 -25.6,0.8 -38.4,2.4 L 207,472.9985 c 19.2,4 38.4,6.4 57.6,6.4 H 387 l 18.4,-40.001 c 9.6,-21.6 15.199,-29.6 16,-53.6 12,3.2 72,18.4 72,36 0,13.6 -17.6,15.2 -28,17.6 -8,12.801 -15.2,27.201 -23.2,40.001 h 195.201 l 34.399,-45.601 c 7.2,9.6 68.001,41.601 68.001,58.4 0,5.6 -10.4,6.4 -13.601,6.4 H 583 c 9.6,3.199 40,14.4 40,28 0,12 -13.601,15.199 -23.2,16.8 -20,30.4 -40.801,57.601 -67.2,82.4 41.601,11.2 84.8,25.601 124,43.2 18.4,8.8 57.601,23.2 57.601,48 0,19.2 -15.2,30.4 -33.6,30.4 -24.801,0 -39.2,-12 -57.601,-27.2 -34.4,-28.8 -74.4,-55.2 -116.801,-71.2 -90.399,70.4 -202.4,84.801 -313.601,85.6 l -1.599,-10.396 z m 241.6,-225.601 c -19.199,33.6 -37.6,69.6 -61.6,100 35.2,2.4 70.4,8.801 105.6,15.2 17.601,-17.601 77.602,-88.8 77.602,-113.601 v -1.6 H 432.599 z" id="path5"/>
</svg>