<?xml version="1.0" encoding="UTF-8"?>
<svg id="Calque_2" data-name="Calque 2" xmlns="http://www.w3.org/2000/svg" viewBox="0 0 383.27529 365.47379">
  <g id="Calque_1-2" data-name="Calque 1">
    <g>
      <path d="M383.27529,345.9221c-.3088,.93542-.63108,1.86666-.92443,2.8069-5.12925,16.44275-24.70534,22.16795-37.69294,10.85652-6.85912-5.97384-13.37299-12.34416-19.59802-18.12269-4.26821,.89053-8.09393,2.32646-11.93003,2.35474-7.69214,.05672-13.01407-4.12543-16.61445-10.83909-.55875-1.04192-2.45527-1.99607-3.66721-1.92135-2.22716,.13731-4.96715-1.54055-6.66616,1.46313-6.51594,11.5196-15.43464,14.2471-27.94977,8.36716-6.45785,6.01492-12.94141,12.20386-19.58939,18.21082-10.16516,9.18503-25.0199,8.32267-33.68869-1.8401-4.08365-4.78742-5.63585-10.43245-5.61557-16.62747,.0318-9.71809,.00843-19.43636,.00843-29.75379h-4.58512c-44.28422-.00002-88.56845,.0018-132.85268-.00162-9.48053-.00073-12.45734-3.00491-12.45792-12.54783-.00168-27.81798-.00181-55.63594,.00332-83.45392,.00023-1.24603-.13012-2.53223,.1258-3.73022,.65494-3.06588,2.59101-4.83093,5.81356-4.66566,3.02832,.15534,4.77615,1.95123,5.20771,4.9131,.17828,1.22355,.07477,2.49025,.0749,3.73732,.00282,26.69529,.00215,53.39056,.00216,80.08585v4.22483H199.85328c0-6.11959-.31314-12.08573,.07701-18.00553,.52104-7.90607,2.61168-15.47885,6.76069-22.33155,4.53481-7.48999,10.89357-11.70292,20.0154-11.34663,6.72592,.2627,13.47046,.07203,20.20653,.04313,4.24619-.01821,5.11216-.85748,5.11278-4.98179,.00875-57.50713,.0071-115.01424-.00274-172.52136-.00018-1.09248-.13057-2.18493-.20906-3.41603H60.68047v4.37695c0,37.04905,.00038,74.09811-.00175,111.14715-.00007,1.24719,.08763,2.50806-.06136,3.73888-.38334,3.16651-2.2403,5.0262-5.42153,5.10117-3.20497,.07552-5.08868-1.79614-5.64829-4.88192-.21957-1.2108-.09239-2.48773-.0925-3.73456-.00324-37.04906-.00264-74.0981-.00264-111.14716v-4.33863c-14.41361-2.1467-16.75224-4.17394-17.50032-15.5812-2.86067,0-5.78503,.0298-8.70853-.00746-3.73803-.04764-7.51416,.16331-11.20472-.29456C4.92432,50.37496,.21658,44.88084,.03844,37.73047c-.06523-2.61803-.03243-5.23916-.0105-7.85859,.07519-8.98279,5.73206-14.62011,14.80749-14.70017,5.59481-.04935,11.19041-.00914,16.99357-.00914,.12336-1.0851,.26091-1.90825,.30421-2.73633C32.52023,5.02406,37.47674,.0682,44.86432,.06311c55.01221-.03787,110.02445-.02678,165.03668-.01174,4.37541,.0012,6.79132,2.15538,6.67576,5.75561-.11429,3.55941-2.65008,5.45452-7.44719,5.45531-53.14107,.00878-106.28215-.0078-159.42319,.0214-7.2945,.00401-6.2949-1.03066-6.33131,6.3328-.05428,10.97723-.01555,21.95493-.01339,32.93242q.00097,4.93526,4.79878,4.93975c44.03473,.00116,88.06947,.00069,132.1042,.00069,28.19222,0,56.3847-.05912,84.57626,.07467,3.52938,.01676,4.74036-.84386,4.66934-4.54159-.2275-11.84634-.18782-23.70129-.0162-35.54951,.04633-3.19785-.71233-4.38109-4.13402-4.2848-8.60053,.24204-17.21245,.08316-25.81981,.07537-.99635-.0009-2.02378,.08258-2.98319-.12315-3.05955-.65607-4.91495-2.54587-4.7712-5.75258,.14202-3.16883,1.99682-5.23633,5.2021-5.26946,10.85085-.11216,21.70897-.22324,32.55375,.06385,5.83082,.15436,10.36029,5.20493,11.04614,11.34457,.1213,1.08573,.15214,2.18156,.2489,3.63534,5.61796,0,11.07831-.0211,16.53847,.00463,9.70826,.04576,15.26359,5.61237,15.34996,15.35667,.01878,2.12048,.04048,4.24215-.00667,6.36177-.19684,8.84705-5.6803,14.42669-14.5723,14.6402-5.70415,.13696-11.41427,.02569-17.07938,.02569-1.14088,12.65508-7.1941,15.69003-17.47821,15.32252v113.62162h3.91486c16.96523,.00003,33.93046-.01889,50.89567,.00597,14.17946,.02078,24.67496,10.02233,24.71841,23.49576,.04336,13.44737-10.45178,23.54932-24.59951,23.65011-4.86477,.03465-9.73173-.07088-14.5945,.03422-4.16913,.0901-6.18647,2.11538-6.72407,6.64698,3.8504,.71971,7.74557,1.34629,11.59366,2.18805,8.12961,1.77839,15.5643,5.15511,22.45374,9.83242,1.23874,.84096,2.93999,1.36141,4.4412,1.39327,6.85784,.14556,13.72688,.25069,20.57986,.01759,8.6464-.29413,14.78959,3.67768,19.28653,10.65024,3.99262,6.19061,5.85257,13.15111,6.97713,20.3498,.14766,.94506,.491,1.85958,.7437,2.78824v64.37427Zm-37.56668-26.2264c3.61609,0,7.23657-.11107,10.84709,.03077,3.72375,.14629,6.65687-1.35622,8.63363-4.29039,1.71982-2.55272,3.28264-5.33907,4.25512-8.2431,2.73287-8.16102,3.45461-16.66907,2.09227-25.10933-.89944-5.57209-2.59592-11.12564-4.74877-16.35257-1.93341-4.69412-5.89727-7.00708-11.38439-6.77264-7.21902,.30846-14.48374,.42489-21.68583-.0408-5.24459-.33911-8.9526,1.20961-12.07479,5.40116-3.17891,4.26766-7.57116,6.85554-13.09629,6.87452-11.47106,.03938-22.94239,.03312-34.41347-.00208-4.46459-.01368-8.21603-1.80864-11.353-4.92861-1.06035-1.05462-2.24143-2.05069-3.05256-3.28102-2.24989-3.41262-5.34407-4.17843-9.26809-4.02828-7.34617,.28102-14.73412,.44572-22.06088-.02421-6.99392-.44858-10.99182,2.88612-13.67208,8.73463-3.73833,8.15726-4.43072,16.80677-3.95546,25.59402,.36529,6.75379,1.44255,13.37913,4.81465,19.41523,2.63581,4.71811,6.232,7.40897,12.04386,7.10686,6.83964-.35554,13.71308-.15326,20.56931-.03982,1.98817,.03289,3.04722-.50797,3.9619-2.4055,3.32961-6.90742,9.02677-10.61127,16.66655-10.65819,7.80016-.04793,13.69648,3.66123,16.97346,10.74376,1.17494,2.53936,2.84994,2.43821,4.75957,2.23067,2.21235-.24043,4.73691,1.20625,6.30702-2.21969,3.24516-7.08087,9.15397-10.81179,16.96749-10.76067,7.64519,.05,13.3329,3.78641,16.69001,10.65029,.93478,1.91123,1.96091,2.49783,3.96297,2.41829,3.7349-.14841,7.47992-.04265,11.22071-.04331Zm-82.26949-80.74132c6.88957-1.41082,13.6925-2.71539,20.43126-4.29386,.85979-.20137,1.82148-1.75895,1.99657-2.81127,1.50432-9.04046,8.63462-15.29777,17.87895-15.41198,4.85609-.05999,9.71366,.01206,14.57029-.01805,8.04416-.04987,13.50464-4.99539,13.56894-12.2476,.06563-7.40248-5.45603-12.43675-13.71139-12.44385-17.06111-.01471-34.12224-.00445-51.18334-.00445-1.1796,0-2.35917,.00002-3.55128,.00002v47.23104Zm-11.61666,91.97026c-8.00681,0-15.16779-.20292-22.31172,.05903-6.68741,.2452-12.87358-.71489-18.14677-5.18435-.09414-.07975-.42811,.1234-.78806,.23872,0,4.93734,.02876,9.91155-.00763,14.88533-.0411,5.62228,2.13149,10.02739,7.38395,12.3059,5.28831,2.29409,9.92674,.67455,13.98801-3.16349,5.78872-5.47055,11.63624-10.87888,17.43946-16.33418,.66984-.62971,1.21763-1.38925,2.44275-2.80695Zm120.19913-6.14309c-5.57177,5.48833-11.66303,6.40881-18.21758,6.19024-6.46877-.21573-12.95038-.0591-19.42626-.03296-.90794,.00365-1.81515,.19428-3.89083,.43229,8.39522,7.55693,15.57385,15.04317,23.799,21.11084,7.0628,5.21021,17.22412-.65305,17.68072-9.53381,.29313-5.70162,.05496-11.43056,.05496-18.1666Zm-107.01939-73.42315c3.69492,6.75196,8.75612,9.46557,16.15691,8.80434,7.04329-.62925,14.24433-.69826,21.27063,.01896,7.38192,.75347,11.57993-2.92053,15.43821-8.6864-17.68837-7.85408-35.14302-7.81558-52.86575-.1369ZM31.92625,26.404c-6.04855,0-11.76437-.03225-17.47957,.0133-2.95798,.02357-3.66007,2.13133-3.11691,4.37805,.77554,3.20794-2.79563,8.45752,2.9509,9.31203,5.69957,.84752,11.62362,.18544,17.64558,.18544v-13.88882Zm248.88605,13.89453c6.12859,0,11.8316,.04569,17.53326-.02191,2.36621-.02806,3.48595-1.63664,3.08183-3.73802-.64791-3.36928,2.18423-7.58518-2.31944-10.04511-.10191-.05566-.2439-.05236-.36719-.05241-5.92708-.00237-11.85417-.00207-17.92845-.00207v13.85953Zm40.33043,284.82544c-.09738-4.05857-3.44403-7.2648-7.53253-7.21651-4.0686,.04809-7.38405,3.36975-7.38386,7.39773,.00018,4.18819,3.50525,7.526,7.75238,7.38247,4.09101-.1382,7.26186-3.48595,7.16402-7.56369Zm-44.78947,.26202c.03714-4.11415-3.13724-7.41148-7.21825-7.49783-4.19221-.08866-7.72528,3.3843-7.65358,7.52335,.06983,4.0312,3.41774,7.28472,7.49365,7.28232,4.13507-.00242,7.34087-3.17768,7.37818-7.30784Z"/>
      <path d="M137.68102,214.46603c-4.16364-1.40607-6.71089-.35677-8.38924,3.41511-1.30962,2.94321-3.08216,5.69899-4.82117,8.42836-2.85984,4.48853-7.2688,6.00139-12.30224,4.32383-1.76903-.58962-3.49551-1.31604-5.21634-2.03961-8.95684-3.76608-12.00001-12.36892-7.30055-20.88555,3.19017-5.78141,6.64332-11.41902,9.77942-17.2286,3.34522-6.19698,8.31783-9.41543,15.41378-9.21701,.37206,.01041,.75093-.00495,1.11674-.06678,.23086-.03903,.44329-.18694,1.07275-.46949,0-1.28537-.00002-2.7531,0-4.22082,.00022-20.83115,.08175-41.66286-.05765-62.49308-.03405-5.08626,1.48762-9.13839,5.17073-12.67017,4.94897-4.74561,9.6035-9.79702,14.42663-14.67544,6.06771-6.1373,13.38264-6.21818,19.42322-.15265,5.1925,5.21394,10.23958,10.5727,15.4296,15.78918,2.99405,3.00931,4.30485,6.5165,4.29046,10.76228-.07185,21.20511-.03264,42.41061-.03251,63.61598,.00001,1.35519,0,2.71038,0,4.36857,1.40559,.08818,2.5978,.17614,3.79143,.2356,5.50765,.27437,9.85165,2.6454,12.66041,7.41045,3.85915,6.5471,7.70376,13.11097,11.28271,19.81284,4.14339,7.75889,.94582,16.34704-7.15104,19.88007-1.36865,.59725-2.77789,1.10184-4.17137,1.64154-6.84937,2.65278-11.09782,1.18273-14.75389-5.11936-1.31309-2.26343-2.86943-4.43478-3.83231-6.84117-1.54472-3.86052-4.11036-5.00487-8.40258-3.69026v3.822c-.00011,16.71482,.01081,33.42962-.00434,50.14444-.00941,10.38925-5.57023,16.00059-15.87401,16.05567-2.61922,.014-5.24592,.10796-7.85666-.04665-8.1466-.48241-13.63718-6.19518-13.66813-14.35924-.06526-17.21343-.02236-34.42722-.02383-51.64088-.00011-1.34069-.00001-2.68138-.00001-3.88916Zm36.77054-33.3829c0-22.95125,.02555-45.50517-.07245-68.05854-.00511-1.17724-.81742-2.57983-1.66991-3.48628-4.52477-4.81114-9.24999-9.4341-13.76163-14.25709-1.85557-1.98366-3.17463-2.19663-5.13076-.07044-4.21763,4.58427-8.59214,9.03135-13.0467,13.38703-1.82968,1.78905-2.57198,3.65683-2.56031,6.23635,.09425,20.81593,.04967,41.63245,.06059,62.4488,.00064,1.2095,.1151,2.41894,.18532,3.80018h35.99584Zm22.79477,38.41032c7.35533-1.71928,7.9372-2.93855,4.52236-8.9134-2.84133-4.97145-5.51096-10.05588-8.64113-14.83863-.9817-1.5-3.20257-3.08694-4.87117-3.10321-21.30661-.20781-42.61634-.19024-63.92368-.02513-1.52547,.01183-3.63529,1.24635-4.45456,2.55176-3.63639,5.79407-6.8623,11.84405-10.31721,17.75441-1.62439,2.77887-.68361,4.44634,2.05532,5.4931,1.13691,.43446,2.30501,.7873,3.72847,1.26834,1.99362-3.45459,3.97948-6.73458,5.80666-10.10072,2.57087-4.7362,6.42172-6.9457,11.85212-6.91089,15.57584,.09987,31.15311,.09743,46.72898,.00059,5.43668-.03381,9.26817,2.2243,11.83938,6.94419,1.83215,3.36319,3.81079,6.64656,5.67446,9.87957Zm-48.3393-5.37671v4.18122c-.00001,15.09439-.02729,30.18885,.00948,45.28315,.02475,10.15817-1.38641,9.64455,9.68884,9.59302,4.70263-.02188,5.26653-.60826,5.26904-5.49196,.00857-16.59135,.00658-33.18268-.00356-49.77403-.00074-1.20986-.09894-2.41966-.1589-3.79139h-14.80489Z"/>
      <path d="M232.12793,283.46221c.7426-4.36529-1.25614-10.14901,5.69173-10.8813,3.813-.40189,4.85739,1.62493,6.13647,10.92976,4.18314,.86253,10.95845-1.42057,10.71601,6.08888-.22085,6.84156-6.40586,4.98216-10.80866,5.57956-.86465,4.28824,1.32694,10.86552-5.84007,10.87601-7.10515,.01039-5.15913-6.45639-5.91639-10.85931-4.48677-.59398-10.38153,1.17373-10.94056-5.93908-.29078-3.69954,2.09709-4.8509,10.96149-5.79452Z"/>
      <path d="M336.03863,283.55411c.68149-4.49794-1.26786-10.46802,5.95644-10.96978,3.85922-.26802,4.86159,1.82177,5.75343,10.95251,4.24178,.85791,11.25701-1.53011,10.79041,6.31684-.3919,6.59064-6.35236,4.78333-10.90026,5.26681-.6753,4.36666,1.49561,11.12187-5.94323,10.93129-6.77821-.17373-5.06293-6.36435-5.62767-10.82214-4.50356-.67192-10.66189,1.17624-10.9778-6.22537-.15803-3.70274,2.33806-4.81609,10.94869-5.45016Z"/>
    </g>
  </g>
</svg>