<svg id="Groupe_2" data-name="Groupe 2" xmlns="http://www.w3.org/2000/svg" width="40" height="40" viewBox="0 0 40 40">
  <path id="Tracé_13" data-name="Tracé 13" d="M0,0H40V40H0Z" fill="none"/>
  <line id="Ligne_4" data-name="Ligne 4" x2="26.667" transform="translate(6.667 11.667)" fill="none" stroke="#3c3c48" stroke-linecap="round" stroke-linejoin="round" stroke-width="2"/>
  <line id="Ligne_5" data-name="Ligne 5" y2="10" transform="translate(16.667 18.333)" fill="none" stroke="#3c3c48" stroke-linecap="round" stroke-linejoin="round" stroke-width="2"/>
  <line id="Ligne_6" data-name="Ligne 6" y2="10" transform="translate(23.333 18.333)" fill="none" stroke="#3c3c48" stroke-linecap="round" stroke-linejoin="round" stroke-width="2"/>
  <path id="Tracé_14" data-name="Tracé 14" d="M5,7,6.667,27A3.333,3.333,0,0,0,10,30.333H23.333A3.333,3.333,0,0,0,26.667,27L28.333,7" transform="translate(3.333 4.667)" fill="none" stroke="#3c3c48" stroke-linecap="round" stroke-linejoin="round" stroke-width="2"/>
  <path id="Tracé_15" data-name="Tracé 15" d="M9,9.667v-5A1.667,1.667,0,0,1,10.667,3h6.667A1.667,1.667,0,0,1,19,4.667v5" transform="translate(6 2)" fill="none" stroke="#3c3c48" stroke-linecap="round" stroke-linejoin="round" stroke-width="2"/>
</svg>
